<svg width="655" height="342" viewBox="0 0 655 342" fill="none" xmlns="http://www.w3.org/2000/svg">
<g clip-path="url(#clip0_809_635)">
<g filter="url(#filter0_d_809_635)">
<path d="M605 4H50C26.804 4 8 22.804 8 46V288C8 311.196 26.804 330 50 330H605C628.196 330 647 311.196 647 288V46C647 22.804 628.196 4 605 4Z" fill="#041F45"/>
<path d="M605 2H50C25.6995 2 6 21.6995 6 46V288C6 312.301 25.6995 332 50 332H605C629.301 332 649 312.301 649 288V46C649 21.6995 629.301 2 605 2Z" stroke="white" stroke-width="4"/>
</g>
<path d="M135.576 271.979C135.005 271.089 134.147 270.792 133.004 270.199C132.147 269.902 130.718 269.605 129.574 269.605H123.858L121 286.814H127.002C128.145 286.814 129.574 286.814 130.718 286.221C131.861 285.627 133.004 285.331 133.862 284.441C134.719 283.551 135.576 282.66 136.148 281.77C136.72 280.88 137.006 279.397 137.291 278.21C137.291 277.023 137.291 275.836 137.291 274.649C137.291 273.463 136.434 272.572 135.862 271.979H135.576ZM133.004 277.913C133.004 279.1 132.433 279.99 131.861 280.583C131.289 281.177 130.718 281.77 129.86 282.364C129.003 282.66 128.145 282.957 127.288 282.957H125.859L127.574 273.166H129.289C129.86 273.166 130.432 273.166 131.003 273.463C131.575 273.463 131.861 274.056 132.147 274.353C132.433 274.649 132.718 275.243 133.004 275.836C133.004 276.43 133.004 277.023 133.004 277.913Z" fill="#5692A9"/>
<path d="M139.006 286.814H143.007L145.865 269.309H141.864L139.006 286.814Z" fill="#5692A9"/>
<path d="M156.441 280.583H160.728C160.728 280.88 160.156 281.473 159.87 281.77C159.585 282.067 159.299 282.66 158.727 282.66C158.441 282.66 157.87 283.253 157.584 283.253C157.012 283.253 156.441 283.253 155.869 283.253C155.297 283.253 154.44 283.253 153.868 282.957C153.297 282.66 153.011 282.363 152.725 281.77C152.439 281.177 152.153 280.583 152.153 279.99C152.153 279.396 152.153 278.803 152.153 277.913C152.153 277.023 152.439 276.429 153.011 275.836C153.297 275.242 153.868 274.649 154.154 274.056C154.726 273.462 155.297 273.166 155.869 272.869C156.441 272.869 157.298 272.572 157.87 272.572C158.441 272.572 159.585 272.572 160.156 273.166C160.728 273.759 161.014 274.056 161.299 274.946L165.015 273.166C164.158 271.979 163.3 270.792 162.157 270.199C161.014 269.605 159.585 269.012 158.155 269.012C157.012 269.012 155.583 269.012 154.44 269.605C153.297 269.902 152.153 270.792 151.296 271.385C150.439 272.275 149.581 273.166 149.009 274.352C148.438 275.539 147.866 276.726 147.866 277.913C147.866 279.1 147.866 280.286 147.866 281.473C147.866 282.66 148.724 283.55 149.295 284.44C149.867 285.33 150.724 285.924 151.868 286.517C153.011 287.111 154.154 287.407 155.297 287.407C156.441 287.407 158.155 287.407 159.013 286.517C160.156 285.924 161.014 285.33 161.871 284.44C162.728 283.55 163.3 282.363 163.872 281.177C164.443 279.99 164.729 278.803 164.729 277.319H156.441L155.869 280.583H156.441Z" fill="#5692A9"/>
<path d="M167.016 286.814H171.017L174.161 269.309H169.874L167.016 286.814Z" fill="#5692A9"/>
<path d="M189.309 269.309H176.448L175.876 273.166H180.449L178.162 286.814H181.878L184.45 273.166H188.738L189.309 269.309Z" fill="#5692A9"/>
<path d="M185.593 286.814H190.166L192.167 283.55H197.312L198.169 286.814H202.456L197.026 268.418L185.308 286.814H185.593ZM197.312 280.286H193.882L196.454 275.836L197.598 280.286H197.312Z" fill="#5692A9"/>
<path d="M212.174 269.309H208.173L205.314 286.814H215.89L216.461 283.254H209.887L212.174 269.309Z" fill="#5692A9"/>
<path d="M233.611 273.165C233.611 273.165 233.897 272.869 234.468 272.572C235.04 272.275 235.04 272.572 235.326 272.572C235.612 272.572 236.183 272.572 236.469 272.572C236.755 272.572 237.041 272.869 237.326 273.462C237.612 274.056 237.898 274.056 237.898 274.352L241.042 272.572C241.042 271.979 240.47 271.385 239.899 270.792C239.327 270.198 238.755 269.902 238.184 269.308C237.326 269.012 236.469 268.715 235.612 268.715C234.754 268.715 233.611 268.715 232.468 269.308C231.324 269.902 230.753 270.198 230.181 271.088C229.609 271.979 229.324 272.869 229.038 273.759C229.038 274.649 229.038 274.946 229.038 275.539C229.038 276.132 229.609 276.726 229.895 277.023C230.181 277.319 230.753 277.913 231.039 278.209C231.61 278.506 231.896 278.803 232.182 279.099C232.753 279.099 233.325 279.693 233.611 279.693C234.182 279.693 234.468 280.286 234.754 280.583C235.04 280.88 235.04 281.176 234.754 281.77C234.754 282.066 234.754 282.363 234.468 282.66C234.468 282.66 233.897 283.253 233.611 283.253C233.325 283.253 232.753 283.253 232.468 283.253C232.182 283.253 231.324 283.253 231.039 282.957C230.753 282.957 230.181 282.363 229.895 281.77C229.609 281.473 229.324 280.88 229.038 280.286L226.18 282.363C226.466 283.253 227.037 284.143 227.609 284.737C228.18 285.33 229.038 285.924 229.895 286.517C230.753 287.11 231.61 287.11 232.753 287.11C233.897 287.11 235.04 287.11 235.897 286.517C236.755 285.924 237.612 285.33 238.47 284.737C239.327 284.143 239.613 282.957 239.613 281.77C239.613 280.88 239.613 279.99 239.327 279.396C239.327 278.803 238.47 278.209 238.184 277.616C237.898 277.023 237.041 276.726 236.183 276.429C235.897 276.429 235.326 276.132 235.04 275.836C234.754 275.539 234.182 275.539 233.897 275.242C233.611 274.946 233.325 274.946 233.039 274.649C232.753 274.352 233.039 274.056 233.039 273.759C233.039 273.462 233.039 273.165 233.325 272.869L233.611 273.165Z" fill="#5692A9"/>
<path d="M248.187 269.309H245.615L242.757 286.814H245.329H246.472H253.332L254.189 283.254H247.044L247.616 279.397H254.189L254.761 275.836H248.187L248.759 272.869H255.904L256.476 269.309H249.331H248.187Z" fill="#5692A9"/>
<path d="M269.623 270.199C268.765 269.605 267.622 269.605 266.479 269.605H260.762L257.904 286.814H261.906L262.763 280.88H263.906L266.479 286.814H271.052L267.908 280.287C267.908 280.287 268.194 280.287 268.479 280.287C269.623 279.99 270.194 279.1 271.052 278.21C271.623 277.32 272.195 276.43 272.195 275.243C272.195 274.056 272.195 273.166 271.909 272.276C271.623 271.386 270.766 270.792 269.908 270.199H269.623ZM267.622 275.243C267.622 275.836 267.622 276.133 267.05 276.43C266.479 276.726 266.479 277.023 265.907 277.32C265.621 277.32 265.05 277.32 264.478 277.32H262.763L263.621 272.869H265.335C265.907 272.869 266.193 272.869 266.479 272.869C266.765 272.869 267.05 273.166 267.336 273.759C267.622 274.353 267.336 274.649 267.336 274.946L267.622 275.243Z" fill="#5692A9"/>
<path d="M286.2 269.309L280.77 279.693L278.483 269.309H273.91L279.626 288.001L291.059 269.309H286.2Z" fill="#5692A9"/>
<path d="M290.487 286.814H294.489L297.347 269.309H293.345L290.487 286.814Z" fill="#5692A9"/>
<path d="M309.637 269.012C308.494 269.012 307.065 269.012 305.921 269.605C304.778 269.902 303.635 270.792 302.777 271.385C301.92 272.275 301.063 273.166 300.491 274.352C299.919 275.539 299.633 276.726 299.348 277.913C299.348 279.1 299.348 280.286 299.348 281.473C299.633 282.66 300.205 283.55 300.777 284.44C301.348 285.33 302.206 285.924 303.349 286.221C304.492 286.814 305.636 286.814 306.779 286.814C307.922 286.814 308.779 286.814 309.637 286.221C310.494 285.627 311.352 285.33 311.923 285.034L312.495 280.583C311.638 281.177 311.066 281.77 310.209 282.067C309.351 282.66 308.494 282.66 307.35 282.66C306.207 282.66 306.207 282.66 305.636 282.363C305.064 282.067 304.778 281.77 304.492 281.177C304.206 280.583 303.921 280.286 303.635 279.693C303.635 279.1 303.635 278.506 303.635 277.913C303.635 277.023 303.921 276.429 304.492 275.836C304.778 275.242 305.35 274.649 305.636 274.352C306.207 274.056 306.779 273.462 307.35 273.166C307.922 272.869 308.494 272.869 309.351 272.869C310.494 272.869 311.066 272.869 311.923 273.462C312.781 274.056 313.067 274.352 313.638 275.242L314.21 270.792C313.638 270.199 312.781 269.902 311.923 269.605C311.066 269.308 310.209 269.012 309.065 269.308L309.637 269.012Z" fill="#5692A9"/>
<path d="M321.64 269.309H319.068L316.21 286.814H318.782H319.926H327.071L327.642 283.254H320.497L321.069 279.397H327.642L328.214 275.836H321.64L322.212 272.869H329.357L329.929 269.309H322.784H321.64Z" fill="#5692A9"/>
<path d="M337.361 273.165C337.361 273.165 337.647 272.869 338.218 272.572C338.79 272.275 338.79 272.572 339.076 272.572C339.362 272.572 339.933 272.572 340.219 272.572C340.505 272.572 340.791 272.869 341.076 273.462C341.076 273.759 341.648 274.056 341.648 274.352L344.792 272.572C344.792 271.979 344.22 271.385 343.649 270.792C343.077 270.198 342.505 269.902 341.934 269.308C341.076 269.012 340.219 268.715 339.362 268.715C338.504 268.715 337.361 268.715 336.218 269.308C335.36 269.605 334.503 270.198 333.931 271.088C333.359 271.979 333.074 272.869 332.788 273.759C332.788 274.649 332.788 274.946 332.788 275.539C332.788 276.132 333.359 276.726 333.645 277.023C333.931 277.319 334.503 277.913 334.789 278.209C335.36 278.506 335.646 278.803 335.932 279.099C336.503 279.099 337.075 279.693 337.361 279.693C337.932 279.693 338.218 280.286 338.504 280.583C338.79 280.88 338.79 281.176 338.504 281.77C338.504 282.066 338.504 282.363 338.218 282.66C338.218 282.66 337.647 283.253 337.361 283.253C337.075 283.253 336.503 283.253 336.218 283.253C335.932 283.253 335.074 283.253 334.789 282.957C334.503 282.957 333.931 282.363 333.645 281.77C333.359 281.473 333.074 280.88 332.788 280.286L329.93 282.363C330.216 283.253 330.787 284.143 331.359 284.737C331.93 285.33 332.788 285.924 333.645 286.517C334.503 287.11 335.36 287.11 336.503 287.11C337.647 287.11 338.79 287.11 339.647 286.517C340.505 286.22 341.362 285.33 342.22 284.737C342.791 283.847 343.363 282.957 343.363 281.77C343.363 280.88 343.363 279.99 343.077 279.396C343.077 278.803 342.22 278.209 341.934 277.616C341.648 277.023 340.791 276.726 339.933 276.429C339.647 276.429 339.076 276.132 338.79 275.836C338.504 275.539 337.932 275.539 337.647 275.242C337.361 274.946 337.075 274.946 336.789 274.649C336.503 274.352 336.789 274.056 336.789 273.759C336.789 273.462 336.789 273.165 337.075 272.869L337.361 273.165Z" fill="#5692A9"/>
<path d="M360.225 269.309H357.653L354.795 286.814H358.796L359.654 279.693H365.656L366.227 276.429H360.225L360.797 272.869H367.085L367.657 269.309H361.654H360.225Z" fill="#5692A9"/>
<path d="M384.806 271.682C384.234 270.792 383.377 270.199 382.234 269.902C381.09 269.605 380.233 269.309 378.804 269.309C377.375 269.309 376.232 269.309 375.088 269.902C373.945 270.495 372.802 271.089 371.944 271.682C371.087 272.572 370.23 273.462 369.658 274.649C369.086 275.836 368.8 277.023 368.515 278.21C368.515 279.397 368.515 280.583 368.515 281.77C368.515 282.957 369.372 283.847 369.944 284.737C370.515 285.627 371.373 286.221 372.516 286.814C373.373 287.407 374.517 287.704 375.946 287.704C377.375 287.704 378.518 287.704 379.661 287.111C380.805 286.517 381.948 285.924 382.805 285.034C383.663 284.144 384.52 283.254 385.092 282.067C385.663 280.88 385.949 279.693 386.235 278.506C386.235 277.32 386.235 276.133 386.235 274.946C386.235 273.759 385.378 272.869 384.806 271.979V271.682ZM382.234 277.913C382.234 278.803 381.948 279.397 381.662 279.99C381.376 280.583 380.805 281.177 380.519 281.77C380.233 282.364 379.376 282.66 378.804 282.957C378.232 282.957 377.661 283.254 376.803 283.254C375.946 283.254 375.66 283.254 375.088 282.957C374.517 282.66 374.231 282.364 373.945 281.77C373.659 281.177 373.373 280.88 373.373 279.99C373.373 279.1 373.373 278.803 373.373 278.21C373.373 277.32 373.659 276.726 373.945 276.133C374.231 275.539 374.803 274.946 375.088 274.353C375.374 273.759 376.232 273.462 376.803 273.166C377.375 273.166 377.946 272.869 378.804 272.869C379.661 272.869 379.947 272.869 380.519 273.166C381.09 273.166 381.376 273.759 381.662 274.353C381.948 274.946 382.234 275.539 382.234 276.133C382.234 276.726 382.234 277.32 382.234 277.913Z" fill="#5692A9"/>
<path d="M400.24 270.199C399.382 269.605 398.239 269.605 397.096 269.605H391.38L388.521 286.814H392.523L393.38 280.88H394.524L397.096 286.814H401.669L398.525 280.287C398.525 280.287 398.811 280.287 399.097 280.287C400.24 279.99 400.811 279.1 401.669 278.21C402.241 277.32 402.812 276.43 402.812 275.243C402.812 274.056 402.812 273.166 402.526 272.276C402.241 271.386 401.383 270.792 400.526 270.199H400.24ZM398.24 275.243C398.24 275.836 398.239 276.133 397.668 276.43C397.382 276.726 397.096 277.023 396.524 277.32C396.238 277.32 395.667 277.32 395.095 277.32H393.38L394.238 272.869H395.953C396.524 272.869 396.81 272.869 397.096 272.869C397.382 272.869 397.668 273.166 397.953 273.759C397.953 274.056 397.953 274.649 397.953 274.946L398.24 275.243Z" fill="#5692A9"/>
<path d="M425.391 270.496C424.82 270.199 424.248 269.902 423.676 269.605C423.105 269.605 422.247 269.605 421.676 269.605H415.674L412.815 286.814H419.389C420.532 286.814 421.676 286.814 422.819 286.221C423.676 285.924 424.534 285.331 425.391 284.737C425.963 283.847 426.534 282.957 426.534 281.77C426.534 280.88 426.534 280.287 426.534 279.397C426.249 278.803 425.677 278.21 425.391 277.913C425.105 277.913 424.534 277.32 424.248 277.32C425.105 277.023 425.677 276.43 426.249 276.133C426.82 275.54 427.392 274.649 427.392 273.759C427.392 272.869 427.392 272.276 427.392 271.979C427.392 271.386 426.82 271.089 426.249 270.792L425.391 270.496ZM420.818 272.573C421.39 272.573 421.961 272.572 422.247 272.869C422.533 273.166 422.819 273.759 422.533 274.056C422.533 274.353 422.533 274.946 422.247 274.946C422.247 274.946 421.676 275.54 421.39 275.54C421.104 275.54 420.532 275.54 420.247 275.54H418.818L419.389 271.979H421.104L420.818 272.573ZM422.533 281.177C422.533 281.77 422.533 282.067 421.961 282.364C421.676 282.66 421.104 282.957 420.818 283.254C420.247 283.254 419.961 283.254 419.389 283.254H417.674L418.532 279.1H420.532C421.104 279.1 421.39 279.1 421.676 279.1C421.961 279.1 422.247 279.397 422.533 279.693C422.819 279.99 422.533 280.287 422.533 280.88V281.177Z" fill="#5692A9"/>
<path d="M439.11 280.583C439.11 281.177 439.11 281.77 438.539 282.067C438.539 282.364 437.967 282.957 437.395 283.254C436.824 283.55 436.538 283.55 435.68 283.55C435.109 283.55 434.823 283.55 434.537 283.254C434.251 282.957 433.966 282.66 433.966 282.067C433.966 281.77 433.966 281.177 433.966 280.583L435.966 269.309H431.965L430.25 280.88C430.25 282.067 430.25 283.254 430.536 284.44C430.822 285.627 431.679 286.221 432.537 286.517C433.394 287.111 434.537 287.407 435.68 287.407C436.824 287.407 438.253 287.407 439.11 286.517C439.968 285.627 441.111 285.331 441.683 284.44C442.254 283.55 442.826 282.364 443.112 280.88L444.826 269.309H440.825L439.11 280.583Z" fill="#5692A9"/>
<path d="M452.543 273.165C452.543 273.165 452.829 272.869 453.401 272.572C453.973 272.275 453.973 272.572 454.258 272.572C454.544 272.572 455.116 272.572 455.402 272.572C455.687 272.572 455.973 272.869 456.259 273.462C456.259 273.759 456.831 274.056 456.831 274.352L459.975 272.572C459.975 271.979 459.403 271.385 458.831 270.792C458.26 270.198 457.688 269.902 457.116 269.308C456.259 269.012 455.402 268.715 454.544 268.715C453.687 268.715 452.543 268.715 451.4 269.308C450.543 269.605 449.685 270.198 449.114 271.088C448.542 271.979 448.256 272.869 447.97 273.759C447.97 274.649 447.97 274.946 447.97 275.539C447.97 276.132 448.542 276.726 448.828 277.023C449.114 277.319 449.685 277.913 449.971 278.209C450.543 278.506 450.829 278.803 451.114 279.099C451.686 279.099 452.258 279.693 452.543 279.693C453.115 279.693 453.401 280.286 453.687 280.583C453.973 280.88 453.973 281.176 453.687 281.77C453.687 282.066 453.687 282.363 453.401 282.66C453.401 282.66 452.829 283.253 452.543 283.253C452.258 283.253 451.686 283.253 451.4 283.253C451.114 283.253 450.257 283.253 449.971 282.957C449.685 282.957 449.114 282.363 448.828 281.77C448.542 281.473 448.256 280.88 447.97 280.286L445.112 282.363C445.398 283.253 445.97 284.143 446.541 284.737C447.113 285.33 447.97 285.924 448.828 286.517C449.685 287.11 450.543 287.11 451.686 287.11C452.829 287.11 453.973 287.11 454.83 286.517C455.687 286.22 456.545 285.33 457.402 284.737C457.974 283.847 458.546 282.957 458.546 281.77C458.546 280.88 458.546 279.99 458.26 279.396C458.26 278.803 457.402 278.209 457.116 277.616C456.545 277.023 455.973 276.726 455.116 276.429C454.83 276.429 454.258 276.132 453.973 275.836C453.687 275.539 453.115 275.539 452.829 275.242C452.543 275.242 452.258 274.946 451.972 274.649C451.972 274.649 451.972 274.056 451.972 273.759C451.972 273.462 451.972 273.165 452.258 272.869L452.543 273.165Z" fill="#5692A9"/>
<path d="M461.689 286.814H465.691L468.549 269.309H464.548L461.689 286.814Z" fill="#5692A9"/>
<path d="M482.554 279.099L473.408 268.715L470.264 286.814H473.979L475.694 277.023L485.126 287.407L488.27 269.308H484.269L482.554 279.099Z" fill="#5692A9"/>
<path d="M495.415 269.309H492.557L489.699 286.814H492.272H493.701H500.56L501.132 283.254H494.272L494.844 279.397H501.418L501.989 275.836H495.415L495.987 272.869H502.847L503.704 269.309H496.559H495.415Z" fill="#5692A9"/>
<path d="M510.849 273.165C510.849 273.165 511.135 272.869 511.707 272.572C512.278 272.275 512.278 272.572 512.564 272.572C512.85 272.572 513.421 272.572 513.707 272.572C513.993 272.572 514.279 272.869 514.565 273.462C514.565 273.759 515.136 274.056 515.136 274.352L518.28 272.572C518.28 271.979 517.709 271.385 517.137 270.792C516.565 270.198 515.994 269.902 515.422 269.308C514.565 269.012 513.707 268.715 512.85 268.715C511.992 268.715 510.849 268.715 509.706 269.308C508.848 269.605 507.991 270.198 507.419 271.088C506.848 271.979 506.562 272.869 506.276 273.759C506.276 274.649 506.276 274.946 506.276 275.539C506.276 276.132 506.848 276.726 507.134 277.023C507.419 277.319 507.991 277.913 508.277 278.209C508.848 278.506 509.134 278.803 509.42 279.099C509.992 279.099 510.563 279.693 510.849 279.693C511.421 279.693 511.707 280.286 511.992 280.583C512.278 280.88 512.278 281.176 511.992 281.77C511.992 282.066 511.992 282.363 511.707 282.66C511.707 282.66 511.135 283.253 510.849 283.253C510.563 283.253 509.992 283.253 509.706 283.253C509.42 283.253 508.563 283.253 508.277 282.957C507.991 282.957 507.419 282.363 507.134 281.77C506.848 281.473 506.562 280.88 506.276 280.286L503.418 282.363C503.704 283.253 504.275 284.143 504.847 284.737C505.419 285.33 506.276 285.924 507.134 286.517C507.991 287.11 508.848 287.11 509.992 287.11C511.135 287.11 512.278 287.11 513.136 286.517C513.993 286.22 514.851 285.33 515.708 284.737C516.28 283.847 516.851 282.957 516.851 281.77C516.851 280.88 516.851 279.99 516.565 279.396C516.565 278.803 515.708 278.209 515.422 277.616C514.85 277.023 514.279 276.726 513.421 276.429C513.136 276.429 512.564 276.132 512.278 275.836C511.992 275.539 511.421 275.539 511.135 275.242C510.849 275.242 510.563 274.946 510.277 274.649C510.277 274.649 510.277 274.056 510.277 273.759C510.277 273.462 510.277 273.165 510.563 272.869L510.849 273.165Z" fill="#5692A9"/>
<path d="M530.856 277.616C530.285 277.022 529.713 276.726 528.856 276.429C528.57 276.429 527.998 276.132 527.712 275.836C527.427 275.539 526.855 275.539 526.569 275.242C526.283 275.242 525.998 274.945 525.712 274.649C525.712 274.649 525.712 274.055 525.712 273.759C525.712 273.462 525.712 273.165 525.998 272.869C525.998 272.869 526.283 272.572 526.855 272.275C527.427 271.978 527.427 272.275 527.712 272.275C527.998 272.275 528.57 272.275 528.856 272.275C529.141 272.275 529.427 272.572 529.713 273.165C529.713 273.462 530.285 273.759 530.285 274.055L533.429 272.275C533.429 271.682 532.857 271.088 532.285 270.495C531.714 269.901 531.142 269.605 530.571 269.011C529.713 268.715 528.856 268.418 527.998 268.418C527.141 268.418 525.998 268.418 524.854 269.011C523.997 269.308 523.139 269.901 522.568 270.792C521.996 271.682 521.71 272.572 521.425 273.462C521.425 274.352 521.425 274.649 521.425 275.242C521.425 275.836 521.996 276.429 522.282 276.726C522.568 277.022 523.139 277.616 523.425 277.912C523.997 278.209 524.283 278.506 524.568 278.803C525.14 278.803 525.712 279.396 525.998 279.396C526.569 279.396 526.855 279.989 527.141 280.286C527.427 280.583 527.427 280.88 527.141 281.473C527.141 281.77 527.141 282.066 526.855 282.363C526.855 282.363 526.283 282.956 525.998 282.956C525.712 282.956 525.14 282.956 524.854 282.956C524.568 282.956 523.711 282.956 523.425 282.66C523.139 282.66 522.568 282.066 522.282 281.473C521.996 281.176 521.71 280.583 521.425 279.989L518.566 282.066C518.852 282.956 519.424 283.847 519.995 284.44C520.567 285.033 521.425 285.627 522.282 286.22C523.139 286.517 523.997 286.814 525.14 286.814C526.283 286.814 527.427 286.814 528.284 286.22C529.141 285.923 529.999 285.033 530.856 284.44C531.428 283.55 532 282.66 532 281.473C532 280.583 532 279.693 531.714 279.099C531.714 278.506 530.856 277.912 530.571 277.319L530.856 277.616Z" fill="#5692A9"/>
<path d="M210.745 198.988L205.029 213.23L210.745 228.362H199.027L195.312 238.153H214.461L221.035 255.065H233.896L210.745 198.988Z" fill="white"/>
<path d="M183.307 252.989L202.171 205.516L207.601 191.571L203.028 180H202.457L171.589 255.066H182.45L183.307 252.989Z" fill="white"/>
<path d="M134.147 218.869C135.862 219.76 137.863 220.65 140.149 221.837L143.293 213.826L144.437 211.155C142.722 210.265 141.293 209.375 140.149 208.485C137.577 206.705 136.434 204.331 136.434 201.661C136.434 198.99 137.291 196.617 139.292 195.133C141.293 193.65 144.151 192.76 147.581 192.76C151.01 192.76 157.584 194.243 163.586 197.507L167.873 188.606C165.015 186.529 161.585 185.045 158.156 184.155C154.726 182.968 150.724 182.375 146.151 182.375C139.864 182.375 134.719 184.452 131.003 188.309C127.288 191.87 125.287 196.617 125.287 202.551C125.287 208.485 126.145 209.968 128.145 212.639C129.86 215.309 132.147 217.386 135.005 218.869H134.147Z" fill="white"/>
<path d="M165.016 224.802C163.301 222.132 161.3 219.758 159.013 218.275C156.441 216.791 153.583 215.308 150.153 213.824C149.867 213.824 149.582 213.824 149.01 213.527L145.009 223.912C148.153 225.395 150.725 226.879 152.726 228.363C155.012 230.143 155.87 232.516 155.87 235.187C155.87 237.857 154.726 241.417 152.154 242.901C149.582 244.384 146.724 245.275 143.294 245.275C139.864 245.275 137.577 244.681 134.434 243.494C131.29 242.308 128.431 240.824 126.145 239.044L121.286 248.242C124.43 250.615 128.146 252.395 132.147 253.879C136.148 255.066 140.436 255.956 144.437 255.956C148.438 255.956 153.297 255.066 156.727 253.286C160.157 251.505 163.015 248.835 164.73 245.868C166.445 242.901 167.588 239.341 167.588 235.483C167.588 231.626 166.73 227.769 165.301 225.099L165.016 224.802Z" fill="white"/>
<path d="M419.103 215.903V182.969H407.956V215.903H419.103Z" fill="white"/>
<path d="M407.956 221.836V255.067H419.103V221.836H407.956Z" fill="white"/>
<path d="M488.556 213.234H485.983V224.509H528.284V213.234H497.13H488.556Z" fill="white"/>
<path d="M497.13 207.595V194.243H531.999V182.969H485.983V207.595H497.13Z" fill="white"/>
<path d="M497.13 230.145H486.555H485.983V255.068H533.428V244.09H497.13V230.145Z" fill="white"/>
<path d="M375.088 241.715V226.286L330.501 180.594H329.93V255.066H341.076L340.791 207.297L375.088 241.715Z" fill="white"/>
<path d="M380.233 182.969V247.353L390.808 258.035H391.094V182.969H379.947H380.233Z" fill="white"/>
<path d="M253.618 196.022L243.043 180.297H242.757V255.066H253.618V215.011V196.022Z" fill="white"/>
<path d="M312.781 180.297L277.626 231.33L259.048 204.033V208.484V223.022L277.34 249.429H277.626L301.92 213.231V255.066H313.067V180.297H312.781Z" fill="white"/>
<path d="M150.153 208.779C152.995 208.779 155.298 206.388 155.298 203.438C155.298 200.489 152.995 198.098 150.153 198.098C147.312 198.098 145.009 200.489 145.009 203.438C145.009 206.388 147.312 208.779 150.153 208.779Z" fill="#5692A9"/>
<path d="M528.284 213.527H485.983V224.505H528.284V213.527Z" fill="#5692A9"/>
<path d="M429.393 182.969V194.243H446.827V215.903H457.974V194.243H475.98V182.969H429.393Z" fill="white"/>
<path d="M449.399 221.836H446.827V255.067H457.974V221.836H449.399Z" fill="white"/>
<path d="M145.144 82.2779C145.84 82.9259 146.488 83.4539 147.088 83.8619C147.688 84.2459 148.252 84.5339 148.78 84.7259C149.332 84.9179 149.848 85.0139 150.328 85.0139C150.952 85.0139 151.432 84.8819 151.768 84.6179C152.104 84.3299 152.272 83.9459 152.272 83.4659C152.272 83.0339 152.128 82.6739 151.84 82.3859C151.576 82.0739 151.18 81.7979 150.652 81.5579C150.124 81.3179 149.452 81.0659 148.636 80.8019C147.868 80.5139 147.124 80.1779 146.404 79.7939C145.684 79.3859 145.084 78.8579 144.604 78.2099C144.148 77.5379 143.92 76.6859 143.92 75.6539C143.92 74.6699 144.184 73.8419 144.712 73.1699C145.24 72.4739 145.948 71.9579 146.836 71.6219C147.748 71.2619 148.756 71.0819 149.86 71.0819C150.796 71.0819 151.672 71.2019 152.488 71.4419C153.304 71.6819 154.06 72.0059 154.756 72.4139C155.452 72.7979 156.064 73.2539 156.592 73.7819L154.54 76.6619C153.94 76.0139 153.22 75.4859 152.38 75.0779C151.564 74.6699 150.76 74.4659 149.968 74.4659C149.44 74.4659 149.02 74.5739 148.708 74.7899C148.42 74.9819 148.276 75.2819 148.276 75.6899C148.276 76.0499 148.42 76.3739 148.708 76.6619C149.02 76.9259 149.452 77.1659 150.004 77.3819C150.58 77.5979 151.228 77.8619 151.948 78.1739C152.836 78.5099 153.652 78.8939 154.396 79.3259C155.164 79.7339 155.776 80.2499 156.232 80.8739C156.688 81.4979 156.916 82.3139 156.916 83.3219C156.916 84.9779 156.376 86.2739 155.296 87.2099C154.216 88.1219 152.728 88.5779 150.832 88.5779C149.656 88.5779 148.576 88.4219 147.592 88.1099C146.632 87.7979 145.756 87.3899 144.964 86.8859C144.196 86.3579 143.5 85.7939 142.876 85.1939L145.144 82.2779ZM157.584 71.4419H162.588L166.656 81.4139L170.724 71.4419H175.728L166.656 89.7299L157.584 71.4419ZM177.744 65.0339C177.744 64.2659 178.02 63.6419 178.572 63.1619C179.124 62.6579 179.784 62.4059 180.552 62.4059C181.32 62.4059 181.968 62.6579 182.496 63.1619C183.048 63.6419 183.324 64.2659 183.324 65.0339C183.324 65.7779 183.048 66.4019 182.496 66.9059C181.968 67.4099 181.32 67.6619 180.552 67.6619C179.784 67.6619 179.124 67.4099 178.572 66.9059C178.02 66.4019 177.744 65.7779 177.744 65.0339ZM178.248 71.4419H182.784V88.0019H178.248V71.4419ZM187.734 59.9219H192.414V88.0019H187.734V59.9219ZM201.839 81.5219C201.839 82.6019 202.055 83.4419 202.487 84.0419C202.919 84.6179 203.615 84.9059 204.575 84.9059C205.247 84.9059 205.823 84.7739 206.303 84.5099C206.807 84.2219 207.191 83.8259 207.455 83.3219C207.743 82.8179 207.887 82.2179 207.887 81.5219V71.4419H212.531V88.0019H207.887V85.4819C207.359 86.4179 206.687 87.1379 205.871 87.6419C205.055 88.1219 204.059 88.3619 202.883 88.3619C200.915 88.3619 199.439 87.7979 198.455 86.6699C197.495 85.5419 197.015 83.9939 197.015 82.0259V71.4419H201.839V81.5219ZM221.696 95.9219H217.016V71.4419H221.696V95.9219ZM235.304 79.7219C235.304 81.5939 234.932 83.1899 234.188 84.5099C233.444 85.8299 232.46 86.8259 231.236 87.4979C230.036 88.1699 228.74 88.5059 227.348 88.5059C225.932 88.5059 224.696 88.1459 223.64 87.4259C222.608 86.7059 221.804 85.6859 221.228 84.3659C220.676 83.0459 220.4 81.4979 220.4 79.7219C220.4 77.9219 220.676 76.3739 221.228 75.0779C221.804 73.7579 222.608 72.7379 223.64 72.0179C224.696 71.2979 225.932 70.9379 227.348 70.9379C228.74 70.9379 230.036 71.2739 231.236 71.9459C232.46 72.6179 233.444 73.6139 234.188 74.9339C234.932 76.2299 235.304 77.8259 235.304 79.7219ZM230.48 79.7219C230.48 78.7379 230.276 77.8979 229.868 77.2019C229.46 76.5059 228.908 75.9779 228.212 75.6179C227.54 75.2579 226.796 75.0779 225.98 75.0779C225.284 75.0779 224.6 75.2579 223.928 75.6179C223.28 75.9539 222.74 76.4699 222.308 77.1659C221.9 77.8619 221.696 78.7139 221.696 79.7219C221.696 80.7299 221.9 81.5819 222.308 82.2779C222.74 82.9739 223.28 83.5019 223.928 83.8619C224.6 84.1979 225.284 84.3659 225.98 84.3659C226.796 84.3659 227.54 84.1859 228.212 83.8259C228.908 83.4659 229.46 82.9379 229.868 82.2419C230.276 81.5459 230.48 80.7059 230.48 79.7219ZM243.353 95.9219H238.673V71.4419H243.353V95.9219ZM256.961 79.7219C256.961 81.5939 256.589 83.1899 255.845 84.5099C255.101 85.8299 254.117 86.8259 252.893 87.4979C251.693 88.1699 250.397 88.5059 249.005 88.5059C247.589 88.5059 246.353 88.1459 245.297 87.4259C244.265 86.7059 243.461 85.6859 242.885 84.3659C242.333 83.0459 242.057 81.4979 242.057 79.7219C242.057 77.9219 242.333 76.3739 242.885 75.0779C243.461 73.7579 244.265 72.7379 245.297 72.0179C246.353 71.2979 247.589 70.9379 249.005 70.9379C250.397 70.9379 251.693 71.2739 252.893 71.9459C254.117 72.6179 255.101 73.6139 255.845 74.9339C256.589 76.2299 256.961 77.8259 256.961 79.7219ZM252.137 79.7219C252.137 78.7379 251.933 77.8979 251.525 77.2019C251.117 76.5059 250.565 75.9779 249.869 75.6179C249.197 75.2579 248.453 75.0779 247.637 75.0779C246.941 75.0779 246.257 75.2579 245.585 75.6179C244.937 75.9539 244.397 76.4699 243.965 77.1659C243.557 77.8619 243.353 78.7139 243.353 79.7219C243.353 80.7299 243.557 81.5819 243.965 82.2779C244.397 82.9739 244.937 83.5019 245.585 83.8619C246.257 84.1979 246.941 84.3659 247.637 84.3659C248.453 84.3659 249.197 84.1859 249.869 83.8259C250.565 83.4659 251.117 82.9379 251.525 82.2419C251.933 81.5459 252.137 80.7059 252.137 79.7219ZM263.749 82.8539C263.749 83.3339 263.869 83.7539 264.109 84.1139C264.349 84.4499 264.673 84.7139 265.081 84.9059C265.513 85.0739 265.981 85.1579 266.485 85.1579C267.205 85.1579 267.853 85.0139 268.429 84.7259C269.005 84.4139 269.473 83.9819 269.833 83.4299C270.193 82.8539 270.373 82.1699 270.373 81.3779L270.949 83.5379C270.949 84.5939 270.649 85.4819 270.049 86.2019C269.473 86.9219 268.717 87.4619 267.781 87.8219C266.869 88.1819 265.909 88.3619 264.901 88.3619C263.869 88.3619 262.909 88.1579 262.021 87.7499C261.133 87.3419 260.413 86.7539 259.861 85.9859C259.333 85.1939 259.069 84.2339 259.069 83.1059C259.069 81.4979 259.633 80.2259 260.761 79.2899C261.889 78.3539 263.485 77.8859 265.549 77.8859C266.605 77.8859 267.529 77.9939 268.321 78.2099C269.137 78.4259 269.821 78.6899 270.373 79.0019C270.925 79.3139 271.321 79.6139 271.561 79.9019V82.0619C270.913 81.5819 270.181 81.2219 269.365 80.9819C268.573 80.7419 267.733 80.6219 266.845 80.6219C266.125 80.6219 265.537 80.7179 265.081 80.9099C264.625 81.0779 264.289 81.3299 264.073 81.6659C263.857 81.9779 263.749 82.3739 263.749 82.8539ZM261.949 76.1219L260.221 72.9539C261.085 72.4979 262.141 72.0659 263.389 71.6579C264.637 71.2259 266.029 71.0099 267.565 71.0099C268.981 71.0099 270.241 71.2139 271.345 71.6219C272.449 72.0299 273.313 72.6299 273.937 73.4219C274.561 74.1899 274.873 75.1379 274.873 76.2659V88.0019H270.373V77.2379C270.373 76.7819 270.301 76.3979 270.157 76.0859C270.013 75.7499 269.785 75.4739 269.473 75.2579C269.185 75.0419 268.837 74.8859 268.429 74.7899C268.021 74.6939 267.565 74.6459 267.061 74.6459C266.293 74.6459 265.561 74.7299 264.865 74.8979C264.169 75.0659 263.569 75.2699 263.065 75.5099C262.561 75.7499 262.189 75.9539 261.949 76.1219ZM277.086 71.4419H287.31V75.3659H277.086V71.4419ZM279.93 65.6819H284.43V88.0019H279.93V65.6819ZM288.676 79.7219C288.676 77.9939 289.072 76.4819 289.864 75.1859C290.68 73.8899 291.772 72.8819 293.14 72.1619C294.532 71.4419 296.104 71.0819 297.856 71.0819C299.608 71.0819 301.168 71.4419 302.536 72.1619C303.928 72.8819 305.02 73.8899 305.812 75.1859C306.628 76.4819 307.036 77.9939 307.036 79.7219C307.036 81.4259 306.628 82.9379 305.812 84.2579C305.02 85.5539 303.928 86.5619 302.536 87.2819C301.168 88.0019 299.608 88.3619 297.856 88.3619C296.104 88.3619 294.532 88.0019 293.14 87.2819C291.772 86.5619 290.68 85.5539 289.864 84.2579C289.072 82.9379 288.676 81.4259 288.676 79.7219ZM293.428 79.7219C293.428 80.6579 293.62 81.4859 294.004 82.2059C294.412 82.9019 294.952 83.4539 295.624 83.8619C296.296 84.2459 297.04 84.4379 297.856 84.4379C298.672 84.4379 299.416 84.2459 300.088 83.8619C300.76 83.4539 301.288 82.9019 301.672 82.2059C302.08 81.4859 302.284 80.6579 302.284 79.7219C302.284 78.7859 302.08 77.9579 301.672 77.2379C301.288 76.5179 300.76 75.9659 300.088 75.5819C299.416 75.1979 298.672 75.0059 297.856 75.0059C297.04 75.0059 296.296 75.1979 295.624 75.5819C294.952 75.9659 294.412 76.5179 294.004 77.2379C293.62 77.9579 293.428 78.7859 293.428 79.7219ZM328.131 88.3619C326.595 88.3619 325.227 88.0019 324.027 87.2819C322.851 86.5379 321.927 85.5179 321.255 84.2219C320.607 82.9259 320.283 81.4259 320.283 79.7219C320.283 77.9939 320.619 76.4819 321.291 75.1859C321.987 73.8899 322.947 72.8819 324.171 72.1619C325.419 71.4419 326.859 71.0819 328.491 71.0819C330.123 71.0819 331.515 71.4299 332.667 72.1259C333.843 72.7979 334.743 73.7699 335.367 75.0419C335.991 76.3139 336.303 77.8259 336.303 79.5779C336.303 79.7459 336.291 79.9259 336.267 80.1179C336.267 80.2859 336.267 80.3939 336.267 80.4419H322.119V77.9939H333.999L332.847 79.6499C332.919 79.5299 332.991 79.3499 333.063 79.1099C333.135 78.8459 333.171 78.6299 333.171 78.4619C333.171 77.4779 332.967 76.6259 332.559 75.9059C332.175 75.1859 331.635 74.6219 330.939 74.2139C330.243 73.8059 329.427 73.6019 328.491 73.6019C327.387 73.6019 326.439 73.8419 325.647 74.3219C324.879 74.7779 324.279 75.4499 323.847 76.3379C323.439 77.2019 323.223 78.2699 323.199 79.5419C323.199 80.8379 323.403 81.9419 323.811 82.8539C324.219 83.7659 324.819 84.4619 325.611 84.9419C326.403 85.4219 327.363 85.6619 328.491 85.6619C329.619 85.6619 330.615 85.4219 331.479 84.9419C332.343 84.4379 333.075 83.6819 333.675 82.6739L336.015 84.1499C335.151 85.5419 334.059 86.5979 332.739 87.3179C331.443 88.0139 329.907 88.3619 328.131 88.3619ZM355.22 95.9219H350.54V71.4419H355.22V95.9219ZM368.828 79.7219C368.828 81.5939 368.456 83.1899 367.712 84.5099C366.968 85.8299 365.984 86.8259 364.76 87.4979C363.56 88.1699 362.264 88.5059 360.872 88.5059C359.456 88.5059 358.22 88.1459 357.164 87.4259C356.132 86.7059 355.328 85.6859 354.752 84.3659C354.2 83.0459 353.924 81.4979 353.924 79.7219C353.924 77.9219 354.2 76.3739 354.752 75.0779C355.328 73.7579 356.132 72.7379 357.164 72.0179C358.22 71.2979 359.456 70.9379 360.872 70.9379C362.264 70.9379 363.56 71.2739 364.76 71.9459C365.984 72.6179 366.968 73.6139 367.712 74.9339C368.456 76.2299 368.828 77.8259 368.828 79.7219ZM364.004 79.7219C364.004 78.7379 363.8 77.8979 363.392 77.2019C362.984 76.5059 362.432 75.9779 361.736 75.6179C361.064 75.2579 360.32 75.0779 359.504 75.0779C358.808 75.0779 358.124 75.2579 357.452 75.6179C356.804 75.9539 356.264 76.4699 355.832 77.1659C355.424 77.8619 355.22 78.7139 355.22 79.7219C355.22 80.7299 355.424 81.5819 355.832 82.2779C356.264 82.9739 356.804 83.5019 357.452 83.8619C358.124 84.1979 358.808 84.3659 359.504 84.3659C360.32 84.3659 361.064 84.1859 361.736 83.8259C362.432 83.4659 362.984 82.9379 363.392 82.2419C363.8 81.5459 364.004 80.7059 364.004 79.7219ZM376.876 71.4419V88.0019H372.304V71.4419H376.876ZM381.736 76.3019C381.424 76.0139 381.1 75.7979 380.764 75.6539C380.452 75.4859 380.056 75.4019 379.576 75.4019C379 75.4019 378.508 75.5579 378.1 75.8699C377.692 76.1819 377.38 76.6259 377.164 77.2019C376.972 77.7539 376.876 78.4259 376.876 79.2179L375.58 77.9219C375.58 76.6019 375.832 75.4379 376.336 74.4299C376.84 73.3979 377.5 72.5819 378.316 71.9819C379.132 71.3579 379.972 71.0459 380.836 71.0459C381.436 71.0459 382 71.1539 382.528 71.3699C383.08 71.5859 383.524 71.9099 383.86 72.3419L381.736 76.3019ZM384.688 79.7219C384.688 77.9939 385.084 76.4819 385.876 75.1859C386.692 73.8899 387.784 72.8819 389.152 72.1619C390.544 71.4419 392.116 71.0819 393.868 71.0819C395.62 71.0819 397.18 71.4419 398.548 72.1619C399.94 72.8819 401.032 73.8899 401.824 75.1859C402.64 76.4819 403.048 77.9939 403.048 79.7219C403.048 81.4259 402.64 82.9379 401.824 84.2579C401.032 85.5539 399.94 86.5619 398.548 87.2819C397.18 88.0019 395.62 88.3619 393.868 88.3619C392.116 88.3619 390.544 88.0019 389.152 87.2819C387.784 86.5619 386.692 85.5539 385.876 84.2579C385.084 82.9379 384.688 81.4259 384.688 79.7219ZM389.44 79.7219C389.44 80.6579 389.632 81.4859 390.016 82.2059C390.424 82.9019 390.964 83.4539 391.636 83.8619C392.308 84.2459 393.052 84.4379 393.868 84.4379C394.684 84.4379 395.428 84.2459 396.1 83.8619C396.772 83.4539 397.3 82.9019 397.684 82.2059C398.092 81.4859 398.296 80.6579 398.296 79.7219C398.296 78.7859 398.092 77.9579 397.684 77.2379C397.3 76.5179 396.772 75.9659 396.1 75.5819C395.428 75.1979 394.684 75.0059 393.868 75.0059C393.052 75.0059 392.308 75.1979 391.636 75.5819C390.964 75.9659 390.424 76.5179 390.016 77.2379C389.632 77.9579 389.44 78.7859 389.44 79.7219ZM405.754 89.1539H410.326C410.35 89.8739 410.542 90.4859 410.902 90.9899C411.262 91.5179 411.754 91.9259 412.378 92.2139C413.002 92.5019 413.734 92.6459 414.574 92.6459C415.342 92.6459 416.062 92.4659 416.734 92.1059C417.43 91.7459 417.982 91.1939 418.39 90.4499C418.822 89.7059 419.038 88.7699 419.038 87.6419V71.4419H423.538V87.6419C423.538 89.6819 423.13 91.3619 422.314 92.6819C421.522 94.0019 420.454 94.9619 419.11 95.5619C417.766 96.1859 416.302 96.4979 414.718 96.4979C412.798 96.4979 411.19 96.1859 409.894 95.5619C408.598 94.9619 407.602 94.0979 406.906 92.9699C406.234 91.8659 405.85 90.5939 405.754 89.1539ZM405.43 79.5779C405.43 77.7299 405.802 76.1819 406.546 74.9339C407.29 73.6619 408.274 72.7019 409.498 72.0539C410.722 71.4059 412.018 71.0819 413.386 71.0819C414.778 71.0819 416.002 71.4179 417.058 72.0899C418.138 72.7619 418.978 73.7339 419.578 75.0059C420.202 76.2539 420.514 77.7779 420.514 79.5779C420.514 81.3539 420.202 82.8779 419.578 84.1499C418.978 85.4219 418.138 86.3939 417.058 87.0659C416.002 87.7139 414.778 88.0379 413.386 88.0379C412.018 88.0379 410.722 87.7139 409.498 87.0659C408.274 86.4179 407.29 85.4699 406.546 84.2219C405.802 82.9499 405.43 81.4019 405.43 79.5779ZM410.254 79.5779C410.254 80.5619 410.458 81.4019 410.866 82.0979C411.274 82.7699 411.826 83.2859 412.522 83.6459C413.218 84.0059 413.962 84.1859 414.754 84.1859C415.45 84.1859 416.122 84.0179 416.77 83.6819C417.442 83.3219 417.982 82.8059 418.39 82.1339C418.822 81.4379 419.038 80.5859 419.038 79.5779C419.038 78.8099 418.918 78.1379 418.678 77.5619C418.438 76.9859 418.102 76.5059 417.67 76.1219C417.262 75.7379 416.806 75.4499 416.302 75.2579C415.798 75.0419 415.282 74.9339 414.754 74.9339C413.962 74.9339 413.218 75.1139 412.522 75.4739C411.826 75.8339 411.274 76.3619 410.866 77.0579C410.458 77.7299 410.254 78.5699 410.254 79.5779ZM435.874 88.3619C434.074 88.3619 432.502 88.0019 431.158 87.2819C429.814 86.5619 428.77 85.5659 428.026 84.2939C427.306 82.9979 426.946 81.4739 426.946 79.7219C426.946 77.9459 427.306 76.4219 428.026 75.1499C428.77 73.8539 429.814 72.8579 431.158 72.1619C432.502 71.4419 434.086 71.0819 435.91 71.0819C437.734 71.0819 439.282 71.4179 440.554 72.0899C441.85 72.7379 442.834 73.6979 443.506 74.9699C444.178 76.2179 444.514 77.7299 444.514 79.5059C444.514 79.7219 444.502 79.9499 444.478 80.1899C444.478 80.4299 444.466 80.6219 444.442 80.7659H429.61V77.8859H440.374L439.114 79.5419C439.21 79.3979 439.294 79.2059 439.366 78.9659C439.462 78.7019 439.51 78.4859 439.51 78.3179C439.51 77.5019 439.354 76.8059 439.042 76.2299C438.754 75.6539 438.334 75.1979 437.782 74.8619C437.23 74.5259 436.582 74.3579 435.838 74.3579C434.926 74.3579 434.158 74.5619 433.534 74.9699C432.934 75.3539 432.466 75.9419 432.13 76.7339C431.818 77.5019 431.65 78.4619 431.626 79.6139C431.626 80.7179 431.782 81.6539 432.094 82.4219C432.43 83.1899 432.922 83.7779 433.57 84.1859C434.218 84.5939 434.998 84.7979 435.91 84.7979C436.942 84.7979 437.818 84.6059 438.538 84.2219C439.282 83.8139 439.894 83.2139 440.374 82.4219L444.442 83.6819C443.578 85.2419 442.426 86.4179 440.986 87.2099C439.57 87.9779 437.866 88.3619 435.874 88.3619ZM445.907 71.4419H456.131V75.3659H445.907V71.4419ZM448.751 65.6819H453.251V88.0019H448.751V65.6819ZM456.489 71.4419H466.713V75.3659H456.489V71.4419ZM459.333 65.6819H463.833V88.0019H459.333V65.6819ZM472.507 82.8539C472.507 83.3339 472.627 83.7539 472.867 84.1139C473.107 84.4499 473.431 84.7139 473.839 84.9059C474.271 85.0739 474.739 85.1579 475.243 85.1579C475.963 85.1579 476.611 85.0139 477.187 84.7259C477.763 84.4139 478.231 83.9819 478.591 83.4299C478.951 82.8539 479.131 82.1699 479.131 81.3779L479.707 83.5379C479.707 84.5939 479.407 85.4819 478.807 86.2019C478.231 86.9219 477.475 87.4619 476.539 87.8219C475.627 88.1819 474.667 88.3619 473.659 88.3619C472.627 88.3619 471.667 88.1579 470.779 87.7499C469.891 87.3419 469.171 86.7539 468.619 85.9859C468.091 85.1939 467.827 84.2339 467.827 83.1059C467.827 81.4979 468.391 80.2259 469.519 79.2899C470.647 78.3539 472.243 77.8859 474.307 77.8859C475.363 77.8859 476.287 77.9939 477.079 78.2099C477.895 78.4259 478.579 78.6899 479.131 79.0019C479.683 79.3139 480.079 79.6139 480.319 79.9019V82.0619C479.671 81.5819 478.939 81.2219 478.123 80.9819C477.331 80.7419 476.491 80.6219 475.603 80.6219C474.883 80.6219 474.295 80.7179 473.839 80.9099C473.383 81.0779 473.047 81.3299 472.831 81.6659C472.615 81.9779 472.507 82.3739 472.507 82.8539ZM470.707 76.1219L468.979 72.9539C469.843 72.4979 470.899 72.0659 472.147 71.6579C473.395 71.2259 474.787 71.0099 476.323 71.0099C477.739 71.0099 478.999 71.2139 480.103 71.6219C481.207 72.0299 482.071 72.6299 482.695 73.4219C483.319 74.1899 483.631 75.1379 483.631 76.2659V88.0019H479.131V77.2379C479.131 76.7819 479.059 76.3979 478.915 76.0859C478.771 75.7499 478.543 75.4739 478.231 75.2579C477.943 75.0419 477.595 74.8859 477.187 74.7899C476.779 74.6939 476.323 74.6459 475.819 74.6459C475.051 74.6459 474.319 74.7299 473.623 74.8979C472.927 75.0659 472.327 75.2699 471.823 75.5099C471.319 75.7499 470.947 75.9539 470.707 76.1219ZM485.844 71.4419H496.068V75.3659H485.844V71.4419ZM488.688 65.6819H493.188V88.0019H488.688V65.6819ZM497.434 79.7219C497.434 77.9939 497.83 76.4819 498.622 75.1859C499.438 73.8899 500.53 72.8819 501.898 72.1619C503.29 71.4419 504.862 71.0819 506.614 71.0819C508.366 71.0819 509.926 71.4419 511.294 72.1619C512.686 72.8819 513.778 73.8899 514.57 75.1859C515.386 76.4819 515.794 77.9939 515.794 79.7219C515.794 81.4259 515.386 82.9379 514.57 84.2579C513.778 85.5539 512.686 86.5619 511.294 87.2819C509.926 88.0019 508.366 88.3619 506.614 88.3619C504.862 88.3619 503.29 88.0019 501.898 87.2819C500.53 86.5619 499.438 85.5539 498.622 84.2579C497.83 82.9379 497.434 81.4259 497.434 79.7219ZM502.186 79.7219C502.186 80.6579 502.378 81.4859 502.762 82.2059C503.17 82.9019 503.71 83.4539 504.382 83.8619C505.054 84.2459 505.798 84.4379 506.614 84.4379C507.43 84.4379 508.174 84.2459 508.846 83.8619C509.518 83.4539 510.046 82.9019 510.43 82.2059C510.838 81.4859 511.042 80.6579 511.042 79.7219C511.042 78.7859 510.838 77.9579 510.43 77.2379C510.046 76.5179 509.518 75.9659 508.846 75.5819C508.174 75.1979 507.43 75.0059 506.614 75.0059C505.798 75.0059 505.054 75.1979 504.382 75.5819C503.71 75.9659 503.17 76.5179 502.762 77.2379C502.378 77.9579 502.186 78.7859 502.186 79.7219ZM325.688 117.922H328.568V146.002H325.688V117.922ZM311.828 137.722C311.828 135.922 312.2 134.386 312.944 133.114C313.688 131.818 314.684 130.822 315.932 130.126C317.18 129.43 318.548 129.082 320.036 129.082C321.428 129.082 322.64 129.43 323.672 130.126C324.704 130.822 325.508 131.818 326.084 133.114C326.684 134.386 326.984 135.922 326.984 137.722C326.984 139.498 326.684 141.034 326.084 142.33C325.508 143.626 324.704 144.622 323.672 145.318C322.64 146.014 321.428 146.362 320.036 146.362C318.548 146.362 317.18 146.014 315.932 145.318C314.684 144.622 313.688 143.626 312.944 142.33C312.2 141.034 311.828 139.498 311.828 137.722ZM314.744 137.722C314.744 138.994 314.996 140.074 315.5 140.962C316.028 141.85 316.724 142.522 317.588 142.978C318.452 143.434 319.388 143.662 320.396 143.662C321.236 143.662 322.064 143.434 322.88 142.978C323.696 142.522 324.368 141.85 324.896 140.962C325.424 140.074 325.688 138.994 325.688 137.722C325.688 136.45 325.424 135.37 324.896 134.482C324.368 133.594 323.696 132.922 322.88 132.466C322.064 132.01 321.236 131.782 320.396 131.782C319.388 131.782 318.452 132.01 317.588 132.466C316.724 132.922 316.028 133.594 315.5 134.482C314.996 135.37 314.744 136.45 314.744 137.722ZM335.096 140.89C335.096 141.514 335.24 142.054 335.528 142.51C335.84 142.966 336.26 143.314 336.788 143.554C337.34 143.77 337.964 143.878 338.66 143.878C339.548 143.878 340.34 143.698 341.036 143.338C341.756 142.978 342.32 142.474 342.728 141.826C343.16 141.154 343.376 140.386 343.376 139.522L343.952 141.682C343.952 142.738 343.628 143.614 342.98 144.31C342.356 145.006 341.576 145.522 340.64 145.858C339.728 146.194 338.816 146.362 337.904 146.362C336.896 146.362 335.948 146.158 335.06 145.75C334.196 145.318 333.5 144.706 332.972 143.914C332.444 143.122 332.18 142.162 332.18 141.034C332.18 139.426 332.744 138.142 333.872 137.182C335.024 136.198 336.62 135.706 338.66 135.706C339.86 135.706 340.856 135.85 341.648 136.138C342.464 136.402 343.112 136.714 343.592 137.074C344.072 137.41 344.396 137.686 344.564 137.902V139.594C343.724 139.018 342.86 138.61 341.972 138.37C341.084 138.106 340.136 137.974 339.128 137.974C338.192 137.974 337.424 138.094 336.824 138.334C336.248 138.574 335.816 138.91 335.528 139.342C335.24 139.774 335.096 140.29 335.096 140.89ZM334.664 133.258L333.26 131.134C333.884 130.678 334.736 130.222 335.816 129.766C336.92 129.31 338.24 129.082 339.776 129.082C341.072 129.082 342.2 129.286 343.16 129.694C344.144 130.078 344.9 130.642 345.428 131.386C345.98 132.13 346.256 133.042 346.256 134.122V146.002H343.376V134.518C343.376 133.942 343.28 133.474 343.088 133.114C342.896 132.73 342.62 132.43 342.26 132.214C341.924 131.998 341.528 131.842 341.072 131.746C340.616 131.65 340.136 131.602 339.632 131.602C338.816 131.602 338.072 131.698 337.4 131.89C336.752 132.082 336.2 132.31 335.744 132.574C335.288 132.838 334.928 133.066 334.664 133.258Z" fill="white"/>
</g>
<defs>
<filter id="filter0_d_809_635" x="0" y="0" width="655" height="342" filterUnits="userSpaceOnUse" color-interpolation-filters="sRGB">
<feFlood flood-opacity="0" result="BackgroundImageFix"/>
<feColorMatrix in="SourceAlpha" type="matrix" values="0 0 0 0 0 0 0 0 0 0 0 0 0 0 0 0 0 0 127 0" result="hardAlpha"/>
<feOffset dy="4"/>
<feGaussianBlur stdDeviation="2"/>
<feComposite in2="hardAlpha" operator="out"/>
<feColorMatrix type="matrix" values="0 0 0 0 1 0 0 0 0 1 0 0 0 0 1 0 0 0 1 0"/>
<feBlend mode="normal" in2="BackgroundImageFix" result="effect1_dropShadow_809_635"/>
<feBlend mode="normal" in="SourceGraphic" in2="effect1_dropShadow_809_635" result="shape"/>
</filter>
<clipPath id="clip0_809_635">
<rect width="655" height="342" fill="white"/>
</clipPath>
</defs>
</svg>
